<svg xmlns="http://www.w3.org/2000/svg" xmlns:xlink="http://www.w3.org/1999/xlink" width="500" zoomAndPan="magnify" viewBox="0 0 375 56.249996" height="75" preserveAspectRatio="xMidYMid meet" version="1.0"><defs><g/><clipPath id="e627560845"><path d="M 2.46875 0 L 372.53125 0 L 372.53125 55.511719 L 2.46875 55.511719 Z M 2.46875 0 " clip-rule="nonzero"/></clipPath><clipPath id="7291ec3e7d"><path d="M 4.6875 2.21875 L 49 2.21875 L 49 20.78125 L 4.6875 20.78125 Z M 4.6875 2.21875 " clip-rule="nonzero"/></clipPath><clipPath id="8f2f04d13e"><path d="M 17 6 L 52.941406 6 L 52.941406 20.78125 L 17 20.78125 Z M 17 6 " clip-rule="nonzero"/></clipPath><clipPath id="27712fe26a"><path d="M 4.6875 34.429688 L 49 34.429688 L 49 52.710938 L 4.6875 52.710938 Z M 4.6875 34.429688 " clip-rule="nonzero"/></clipPath><clipPath id="f32b9a9610"><path d="M 17 34.429688 L 52.941406 34.429688 L 52.941406 49 L 17 49 Z M 17 34.429688 " clip-rule="nonzero"/></clipPath></defs><g clip-path="url(#e627560845)"><path fill="#ffffff" d="M 2.46875 0 L 372.53125 0 L 372.53125 118.421875 L 2.46875 118.421875 Z M 2.46875 0 " fill-opacity="1" fill-rule="nonzero"/><path fill="#ffffff" d="M 2.46875 0 L 372.53125 0 L 372.53125 55.511719 L 2.46875 55.511719 Z M 2.46875 0 " fill-opacity="1" fill-rule="nonzero"/><path fill="#ffffff" d="M 2.46875 0 L 372.53125 0 L 372.53125 55.511719 L 2.46875 55.511719 Z M 2.46875 0 " fill-opacity="1" fill-rule="nonzero"/></g><g clip-path="url(#7291ec3e7d)"><path fill="#f89927" d="M 32.410156 48.828125 C 20.183594 48.828125 10.273438 38.929688 10.273438 26.71875 C 10.273438 14.507812 20.183594 4.609375 32.410156 4.609375 C 38.738281 4.609375 44.449219 7.261719 48.484375 11.519531 C 43.988281 5.855469 37.042969 2.21875 29.246094 2.21875 C 15.699219 2.21875 4.71875 13.1875 4.71875 26.71875 C 4.71875 40.25 15.699219 51.21875 29.246094 51.21875 C 37.042969 51.21875 43.988281 47.582031 48.484375 41.917969 C 44.449219 46.171875 38.738281 48.828125 32.410156 48.828125 " fill-opacity="1" fill-rule="nonzero"/></g><g clip-path="url(#8f2f04d13e)"><path fill="#11b596" d="M 33.054688 6.878906 C 26.996094 6.878906 21.574219 9.585938 17.929688 13.855469 C 21.480469 10.535156 26.253906 8.503906 31.5 8.503906 C 42.472656 8.503906 51.363281 17.386719 51.363281 28.34375 C 51.363281 33.25 49.578125 37.742188 46.625 41.203125 C 50.496094 37.585938 52.917969 32.433594 52.917969 26.71875 C 52.917969 15.761719 44.023438 6.878906 33.054688 6.878906 " fill-opacity="1" fill-rule="nonzero"/></g><g clip-path="url(#27712fe26a)"><path fill="#f9e817" d="M 32.410156 6.105469 C 20.183594 6.105469 10.273438 16.003906 10.273438 28.214844 C 10.273438 40.425781 20.183594 50.324219 32.410156 50.324219 C 38.738281 50.324219 44.449219 47.667969 48.484375 43.414062 C 43.988281 49.078125 37.042969 52.710938 29.246094 52.710938 C 15.699219 52.710938 4.71875 41.746094 4.71875 28.214844 C 4.71875 14.683594 15.699219 3.714844 29.246094 3.714844 C 37.042969 3.714844 43.988281 7.351562 48.484375 13.015625 C 44.449219 8.757812 38.738281 6.105469 32.410156 6.105469 " fill-opacity="1" fill-rule="nonzero"/></g><g clip-path="url(#f32b9a9610)"><path fill="#5599d3" d="M 33.054688 48.054688 C 26.996094 48.054688 21.574219 45.347656 17.929688 41.078125 C 21.480469 44.394531 26.253906 46.429688 31.5 46.429688 C 42.472656 46.429688 51.363281 37.546875 51.363281 26.589844 C 51.363281 21.679688 49.578125 17.191406 46.625 13.726562 C 50.496094 17.347656 52.917969 22.5 52.917969 28.214844 C 52.917969 39.171875 44.023438 48.054688 33.054688 48.054688 " fill-opacity="1" fill-rule="nonzero"/></g><g fill="#46494d" fill-opacity="1"><g transform="translate(63.35962, 43.666662)"><g><path d="M 1.59375 -10.660156 L 1.59375 -9.839844 C 1.59375 -5.015625 3.523438 0.675781 12.0625 0.675781 C 19.007812 0.675781 23.445312 -2.363281 23.445312 -9.695312 C 23.445312 -14.425781 21.324219 -17.078125 16.449219 -18.816406 L 12.734375 -20.164062 C 9.070312 -21.5625 7.574219 -23.058594 7.574219 -26.003906 C 7.574219 -29.667969 9.839844 -30.972656 12.207031 -30.972656 C 15.628906 -30.972656 17.03125 -29.136719 17.03125 -26.003906 L 17.03125 -25.277344 L 22.527344 -25.277344 L 22.527344 -26.050781 C 22.527344 -29.621094 21.613281 -35.121094 12.785156 -35.121094 C 6.320312 -35.121094 2.074219 -31.648438 2.074219 -25.375 C 2.074219 -20.453125 4.246094 -17.851562 9.261719 -15.921875 L 13.027344 -14.617188 C 16.113281 -13.699219 17.945312 -12.109375 17.945312 -8.492188 C 17.945312 -5.933594 16.210938 -3.472656 12.734375 -3.472656 C 8.925781 -3.472656 7.089844 -5.597656 7.089844 -9.792969 L 7.089844 -10.660156 Z M 1.59375 -10.660156 "/></g></g></g><g fill="#46494d" fill-opacity="1"><g transform="translate(88.391218, 43.666662)"><g><path d="M 0.191406 -22.09375 L 3.761719 -22.09375 L 3.761719 -5.980469 C 3.761719 -0.675781 5.5 0.289062 9.019531 0.289062 C 10.660156 0.289062 12.109375 0.144531 13.21875 -0.144531 L 13.21875 -4.003906 C 12.734375 -3.90625 12.109375 -3.859375 11.335938 -3.859375 C 9.550781 -3.859375 8.972656 -4.582031 8.972656 -6.609375 L 8.972656 -22.09375 L 13.21875 -22.09375 L 13.21875 -25.953125 L 8.972656 -25.953125 L 8.972656 -33.335938 L 3.761719 -33.335938 L 3.761719 -25.953125 L 0.191406 -25.953125 Z M 0.191406 -22.09375 "/></g></g></g><g fill="#46494d" fill-opacity="1"><g transform="translate(101.79928, 43.666662)"><g><path d="M 19.539062 -20.261719 C 19.539062 -24.84375 15.871094 -26.628906 11.289062 -26.628906 C 4.4375 -26.628906 2.171875 -23.589844 2.171875 -18.089844 L 7.089844 -18.089844 C 7.089844 -20.597656 7.574219 -23.058594 11.046875 -23.058594 C 13.796875 -23.058594 14.617188 -21.5625 14.617188 -19.199219 C 14.617188 -16.933594 13.460938 -16.402344 11.578125 -15.871094 L 7.527344 -14.761719 C 4.003906 -13.605469 1.496094 -12.398438 1.496094 -6.609375 C 1.496094 -1.640625 4.101562 0.675781 8.25 0.675781 C 11.289062 0.675781 13.316406 -0.578125 14.714844 -3.136719 L 14.808594 -3.136719 C 14.957031 -0.628906 16.886719 0.289062 19.199219 0.289062 C 20.214844 0.289062 21.128906 -0.046875 21.757812 -0.335938 L 21.757812 -3.714844 C 21.5625 -3.617188 21.226562 -3.570312 20.890625 -3.570312 C 20.117188 -3.570312 19.539062 -4.4375 19.539062 -5.402344 Z M 14.617188 -9.359375 C 14.617188 -5.546875 13.074219 -3.183594 9.9375 -3.183594 C 7.765625 -3.183594 6.707031 -4.921875 6.707031 -7.089844 C 6.707031 -9.019531 7.332031 -10.566406 8.828125 -11.289062 C 10.371094 -12.011719 13.265625 -12.640625 14.617188 -13.699219 Z M 14.617188 -9.359375 "/></g></g></g><g fill="#46494d" fill-opacity="1"><g transform="translate(124.129962, 43.666662)"><g><path d="M 4.101562 0 L 9.3125 0 L 9.3125 -22.09375 L 13.554688 -22.09375 L 13.554688 -25.953125 L 9.3125 -25.953125 L 9.3125 -28.222656 C 9.3125 -29.957031 10.179688 -30.683594 12.109375 -30.683594 L 13.554688 -30.683594 L 13.554688 -34.6875 C 12.785156 -34.78125 11.820312 -34.832031 10.710938 -34.832031 C 6.464844 -34.832031 4.101562 -33.289062 4.101562 -28.367188 L 4.101562 -25.953125 L 0.484375 -25.953125 L 0.484375 -22.09375 L 4.101562 -22.09375 Z M 4.101562 0 "/></g></g></g><g fill="#46494d" fill-opacity="1"><g transform="translate(137.538023, 43.666662)"><g><path d="M 4.101562 0 L 9.3125 0 L 9.3125 -22.09375 L 13.554688 -22.09375 L 13.554688 -25.953125 L 9.3125 -25.953125 L 9.3125 -28.222656 C 9.3125 -29.957031 10.179688 -30.683594 12.109375 -30.683594 L 13.554688 -30.683594 L 13.554688 -34.6875 C 12.785156 -34.78125 11.820312 -34.832031 10.710938 -34.832031 C 6.464844 -34.832031 4.101562 -33.289062 4.101562 -28.367188 L 4.101562 -25.953125 L 0.484375 -25.953125 L 0.484375 -22.09375 L 4.101562 -22.09375 Z M 4.101562 0 "/></g></g></g><g fill="#46494d" fill-opacity="1"><g transform="translate(150.946084, 43.666662)"><g><path d="M 2.75 0 L 7.960938 0 L 7.960938 -25.953125 L 2.75 -25.953125 Z M 2.75 -29.621094 L 7.960938 -29.621094 L 7.960938 -34.832031 L 2.75 -34.832031 Z M 2.75 -29.621094 "/></g></g></g><g fill="#46494d" fill-opacity="1"><g transform="translate(161.653246, 43.666662)"><g><path d="M 2.507812 0 L 7.71875 0 L 7.71875 -17.414062 C 7.71875 -20.792969 9.746094 -22.480469 11.867188 -22.480469 C 14.472656 -22.480469 15.484375 -21.179688 15.484375 -17.800781 L 15.484375 0 L 20.695312 0 L 20.695312 -19.585938 C 20.695312 -24.84375 18.1875 -26.628906 14.230469 -26.628906 C 11.335938 -26.628906 8.875 -25.230469 7.574219 -22.914062 L 7.429688 -22.914062 L 7.429688 -25.953125 L 2.507812 -25.953125 Z M 2.507812 0 "/></g></g></g><g fill="#46494d" fill-opacity="1"><g transform="translate(184.852076, 43.666662)"><g><path d="M 2.796875 2.21875 C 2.796875 4.34375 3.667969 8.875 11.386719 8.875 C 18.378906 8.875 21.082031 5.066406 21.082031 -1.253906 L 21.082031 -25.953125 L 16.160156 -25.953125 L 16.160156 -22.769531 L 16.066406 -22.769531 C 15.582031 -24.652344 13.410156 -26.628906 10.371094 -26.628906 C 2.992188 -26.628906 2.121094 -18.960938 2.121094 -13.265625 C 2.121094 -6.175781 3.8125 -0.191406 9.890625 -0.191406 C 12.398438 -0.191406 14.808594 -1.496094 15.773438 -3.761719 L 15.871094 -3.761719 L 15.871094 0.433594 C 15.871094 3.425781 14.183594 5.308594 11.480469 5.308594 C 9.167969 5.308594 7.71875 3.8125 7.71875 2.21875 Z M 7.332031 -13.796875 C 7.332031 -18.621094 7.960938 -22.480469 11.722656 -22.480469 C 15.339844 -22.480469 15.871094 -17.800781 15.871094 -13.554688 C 15.871094 -9.457031 15.4375 -4.34375 11.386719 -4.34375 C 7.527344 -4.34375 7.332031 -9.359375 7.332031 -13.796875 Z M 7.332031 -13.796875 "/></g></g></g><g fill="#46494d" fill-opacity="1"><g transform="translate(208.050906, 43.666662)"><g><path d="M 2.847656 0 L 8.054688 0 L 8.054688 -28.65625 L 8.152344 -28.65625 L 15.101562 0 L 19.730469 0 L 26.679688 -28.65625 L 26.773438 -28.65625 L 26.773438 0 L 31.984375 0 L 31.984375 -34.445312 L 23.589844 -34.445312 L 17.609375 -8.925781 L 17.511719 -8.925781 L 11.433594 -34.445312 L 2.847656 -34.445312 Z M 2.847656 0 "/></g></g></g><g fill="#46494d" fill-opacity="1"><g transform="translate(242.873273, 43.666662)"><g><path d="M 19.539062 -20.261719 C 19.539062 -24.84375 15.871094 -26.628906 11.289062 -26.628906 C 4.4375 -26.628906 2.171875 -23.589844 2.171875 -18.089844 L 7.089844 -18.089844 C 7.089844 -20.597656 7.574219 -23.058594 11.046875 -23.058594 C 13.796875 -23.058594 14.617188 -21.5625 14.617188 -19.199219 C 14.617188 -16.933594 13.460938 -16.402344 11.578125 -15.871094 L 7.527344 -14.761719 C 4.003906 -13.605469 1.496094 -12.398438 1.496094 -6.609375 C 1.496094 -1.640625 4.101562 0.675781 8.25 0.675781 C 11.289062 0.675781 13.316406 -0.578125 14.714844 -3.136719 L 14.808594 -3.136719 C 14.957031 -0.628906 16.886719 0.289062 19.199219 0.289062 C 20.214844 0.289062 21.128906 -0.046875 21.757812 -0.335938 L 21.757812 -3.714844 C 21.5625 -3.617188 21.226562 -3.570312 20.890625 -3.570312 C 20.117188 -3.570312 19.539062 -4.4375 19.539062 -5.402344 Z M 14.617188 -9.359375 C 14.617188 -5.546875 13.074219 -3.183594 9.9375 -3.183594 C 7.765625 -3.183594 6.707031 -4.921875 6.707031 -7.089844 C 6.707031 -9.019531 7.332031 -10.566406 8.828125 -11.289062 C 10.371094 -12.011719 13.265625 -12.640625 14.617188 -13.699219 Z M 14.617188 -9.359375 "/></g></g></g><g fill="#46494d" fill-opacity="1"><g transform="translate(265.203955, 43.666662)"><g><path d="M 2.507812 0 L 7.71875 0 L 7.71875 -17.414062 C 7.71875 -20.792969 9.746094 -22.480469 11.867188 -22.480469 C 14.472656 -22.480469 15.484375 -21.179688 15.484375 -17.800781 L 15.484375 0 L 20.695312 0 L 20.695312 -19.585938 C 20.695312 -24.84375 18.1875 -26.628906 14.230469 -26.628906 C 11.335938 -26.628906 8.875 -25.230469 7.574219 -22.914062 L 7.429688 -22.914062 L 7.429688 -25.953125 L 2.507812 -25.953125 Z M 2.507812 0 "/></g></g></g><g fill="#46494d" fill-opacity="1"><g transform="translate(288.402785, 43.666662)"><g><path d="M 19.539062 -20.261719 C 19.539062 -24.84375 15.871094 -26.628906 11.289062 -26.628906 C 4.4375 -26.628906 2.171875 -23.589844 2.171875 -18.089844 L 7.089844 -18.089844 C 7.089844 -20.597656 7.574219 -23.058594 11.046875 -23.058594 C 13.796875 -23.058594 14.617188 -21.5625 14.617188 -19.199219 C 14.617188 -16.933594 13.460938 -16.402344 11.578125 -15.871094 L 7.527344 -14.761719 C 4.003906 -13.605469 1.496094 -12.398438 1.496094 -6.609375 C 1.496094 -1.640625 4.101562 0.675781 8.25 0.675781 C 11.289062 0.675781 13.316406 -0.578125 14.714844 -3.136719 L 14.808594 -3.136719 C 14.957031 -0.628906 16.886719 0.289062 19.199219 0.289062 C 20.214844 0.289062 21.128906 -0.046875 21.757812 -0.335938 L 21.757812 -3.714844 C 21.5625 -3.617188 21.226562 -3.570312 20.890625 -3.570312 C 20.117188 -3.570312 19.539062 -4.4375 19.539062 -5.402344 Z M 14.617188 -9.359375 C 14.617188 -5.546875 13.074219 -3.183594 9.9375 -3.183594 C 7.765625 -3.183594 6.707031 -4.921875 6.707031 -7.089844 C 6.707031 -9.019531 7.332031 -10.566406 8.828125 -11.289062 C 10.371094 -12.011719 13.265625 -12.640625 14.617188 -13.699219 Z M 14.617188 -9.359375 "/></g></g></g><g fill="#46494d" fill-opacity="1"><g transform="translate(310.733467, 43.666662)"><g><path d="M 2.796875 2.21875 C 2.796875 4.34375 3.667969 8.875 11.386719 8.875 C 18.378906 8.875 21.082031 5.066406 21.082031 -1.253906 L 21.082031 -25.953125 L 16.160156 -25.953125 L 16.160156 -22.769531 L 16.066406 -22.769531 C 15.582031 -24.652344 13.410156 -26.628906 10.371094 -26.628906 C 2.992188 -26.628906 2.121094 -18.960938 2.121094 -13.265625 C 2.121094 -6.175781 3.8125 -0.191406 9.890625 -0.191406 C 12.398438 -0.191406 14.808594 -1.496094 15.773438 -3.761719 L 15.871094 -3.761719 L 15.871094 0.433594 C 15.871094 3.425781 14.183594 5.308594 11.480469 5.308594 C 9.167969 5.308594 7.71875 3.8125 7.71875 2.21875 Z M 7.332031 -13.796875 C 7.332031 -18.621094 7.960938 -22.480469 11.722656 -22.480469 C 15.339844 -22.480469 15.871094 -17.800781 15.871094 -13.554688 C 15.871094 -9.457031 15.4375 -4.34375 11.386719 -4.34375 C 7.527344 -4.34375 7.332031 -9.359375 7.332031 -13.796875 Z M 7.332031 -13.796875 "/></g></g></g><g fill="#46494d" fill-opacity="1"><g transform="translate(333.932297, 43.666662)"><g><path d="M 20.550781 -12.300781 L 20.550781 -15.050781 C 20.550781 -22.289062 18.621094 -26.628906 11.386719 -26.628906 C 3.230469 -26.628906 1.785156 -19.394531 1.785156 -12.589844 C 1.785156 -0.578125 7.042969 0.675781 11.289062 0.675781 C 16.933594 0.675781 20.40625 -2.941406 20.40625 -8.683594 L 15.484375 -8.683594 C 15.484375 -7.140625 15.050781 -2.894531 11.335938 -2.894531 C 7.429688 -2.894531 6.996094 -7.332031 6.996094 -10.804688 L 6.996094 -12.300781 Z M 6.996094 -15.871094 L 6.996094 -16.402344 C 6.996094 -19.78125 8.007812 -23.058594 11.335938 -23.058594 C 14.28125 -23.058594 15.339844 -20.550781 15.339844 -17.269531 L 15.339844 -15.871094 Z M 6.996094 -15.871094 "/></g></g></g><g fill="#46494d" fill-opacity="1"><g transform="translate(356.262963, 43.666662)"><g><path d="M 2.507812 0 L 7.71875 0 L 7.71875 -15.535156 C 7.71875 -20.359375 10.566406 -21.417969 12.929688 -21.417969 C 13.796875 -21.417969 14.714844 -21.226562 15.101562 -21.128906 L 15.101562 -26.4375 C 14.761719 -26.535156 14.425781 -26.628906 13.84375 -26.628906 C 10.902344 -26.628906 8.972656 -24.796875 7.816406 -21.902344 L 7.71875 -21.902344 L 7.71875 -25.953125 L 2.507812 -25.953125 Z M 2.507812 0 "/></g></g></g></svg>